<?xml version="1.0" standalone="no"?>
<!DOCTYPE svg PUBLIC "-//W3C//DTD SVG 20010904//EN"
 "http://www.w3.org/TR/2001/REC-SVG-20010904/DTD/svg10.dtd">
<svg version="1.0" xmlns="http://www.w3.org/2000/svg"
 width="1536.000000pt" height="1536.000000pt" viewBox="0 0 1536.000000 1536.000000"
 preserveAspectRatio="xMidYMid meet">
<metadata>
Created by potrace 1.11, written by Peter Selinger 2001-2013
</metadata>
<g transform="translate(0.000000,1536.000000) scale(0.100000,-0.100000)"
fill="#000000" stroke="none">
<path d="M7622 13905 c-53 -23 -161 -97 -214 -147 -10 -10 -20 -18 -22 -18 -7
0 -65 -52 -132 -117 -36 -35 -66 -63 -68 -63 -6 0 -317 -320 -371 -382 -16
-19 -67 -76 -113 -127 -46 -50 -91 -101 -100 -113 -9 -11 -35 -41 -57 -65 -62
-71 -71 -81 -107 -125 -18 -23 -45 -55 -61 -72 -15 -17 -44 -52 -64 -78 -21
-27 -41 -48 -45 -48 -4 0 -8 -4 -8 -10 0 -5 -8 -18 -17 -29 -10 -10 -31 -35
-48 -56 -16 -21 -39 -47 -50 -59 -11 -12 -39 -47 -61 -77 -23 -30 -55 -70 -73
-89 -17 -19 -31 -38 -31 -41 0 -6 -14 -23 -66 -81 -13 -15 -24 -32 -24 -37 0
-5 -3 -11 -8 -13 -4 -1 -16 -15 -27 -29 -11 -15 -52 -69 -92 -120 -39 -52
-105 -139 -147 -194 -41 -55 -85 -113 -98 -128 -13 -15 -25 -33 -27 -39 -2 -6
-10 -18 -18 -27 -14 -15 -133 -177 -161 -217 -7 -11 -56 -80 -109 -154 -104
-145 -221 -313 -311 -450 -31 -47 -62 -91 -69 -98 -6 -6 -15 -21 -18 -32 -3
-11 -11 -20 -16 -20 -5 0 -9 -4 -9 -10 0 -5 -33 -58 -72 -118 -40 -60 -77
-116 -83 -125 -5 -9 -44 -69 -85 -132 -41 -64 -79 -124 -85 -133 -37 -62 -76
-125 -112 -180 -24 -36 -43 -71 -43 -78 0 -8 -5 -14 -11 -14 -5 0 -7 -4 -4
-10 3 -5 2 -10 -3 -10 -5 0 -31 -39 -58 -86 -27 -48 -59 -103 -71 -123 -12
-20 -41 -70 -64 -111 -23 -41 -46 -76 -50 -78 -5 -2 -9 -8 -9 -14 0 -6 -23
-51 -52 -102 -28 -50 -64 -115 -79 -144 -16 -30 -32 -59 -38 -65 -5 -7 -11
-19 -13 -27 -2 -8 -6 -17 -9 -20 -3 -3 -21 -36 -41 -75 -20 -38 -47 -90 -60
-115 -13 -25 -27 -48 -31 -51 -5 -3 -8 -8 -6 -10 1 -2 -41 -92 -93 -199 -107
-217 -138 -284 -138 -298 0 -5 -7 -15 -15 -22 -9 -7 -14 -15 -11 -17 2 -2 -9
-31 -25 -63 -16 -32 -31 -70 -35 -85 -3 -14 -11 -25 -17 -25 -6 0 -8 -3 -5 -6
6 -5 -16 -60 -59 -151 -8 -17 -16 -37 -17 -45 -2 -7 -8 -24 -13 -38 -34 -79
-101 -263 -140 -380 -25 -74 -47 -142 -50 -150 -3 -8 -7 -19 -9 -25 -73 -257
-111 -408 -121 -480 -3 -22 -9 -45 -14 -51 -5 -6 -6 -14 -3 -17 3 -3 2 -11 -2
-19 -4 -7 -9 -28 -10 -48 -1 -19 -3 -35 -4 -35 -1 0 -3 -11 -5 -25 -2 -14 -6
-43 -9 -65 -28 -209 -28 -620 -1 -835 3 -25 8 -70 10 -100 2 -30 5 -55 6 -55
1 0 3 -9 4 -20 1 -11 5 -37 9 -57 3 -21 9 -54 12 -74 3 -20 8 -46 10 -58 3
-11 8 -37 10 -56 3 -19 8 -42 11 -50 3 -8 7 -27 10 -42 3 -22 25 -113 58 -238
27 -105 131 -415 153 -456 6 -10 21 -46 33 -79 12 -33 49 -116 81 -185 33 -69
59 -127 59 -130 1 -3 5 -10 11 -17 5 -7 28 -47 50 -90 22 -43 49 -90 59 -105
11 -14 19 -29 19 -31 0 -10 159 -260 179 -284 6 -7 11 -17 11 -22 0 -6 6 -14
13 -18 6 -4 28 -30 47 -58 19 -27 38 -54 42 -60 5 -5 27 -35 50 -65 24 -30 45
-57 48 -60 3 -3 25 -30 49 -60 25 -30 54 -64 65 -76 12 -12 44 -48 73 -80 95
-109 299 -307 418 -406 22 -18 52 -45 67 -60 16 -14 28 -24 28 -22 0 3 7 -2
16 -10 9 -9 32 -29 52 -44 21 -15 39 -29 42 -32 3 -3 22 -16 42 -30 21 -14 38
-28 38 -32 0 -5 6 -8 14 -8 8 0 16 -4 18 -8 2 -4 39 -32 83 -62 44 -30 85 -58
90 -63 34 -26 88 -57 98 -57 7 0 19 -9 27 -20 8 -11 22 -20 32 -20 10 0 18 -3
18 -8 0 -4 29 -22 65 -40 35 -19 67 -38 71 -43 3 -5 10 -7 15 -4 5 4 9 2 9 -2
0 -10 121 -73 138 -73 6 0 12 -3 14 -7 2 -7 113 -65 128 -68 3 0 21 -8 40 -17
19 -9 80 -35 135 -58 55 -23 111 -46 125 -52 14 -5 26 -9 28 -9 1 1 16 -6 32
-14 17 -9 30 -13 30 -9 0 4 6 1 13 -5 8 -6 17 -8 20 -4 4 3 7 2 7 -4 0 -5 6
-10 13 -10 6 0 55 -15 107 -32 52 -18 120 -39 150 -47 30 -9 71 -20 90 -25 19
-6 45 -12 57 -14 12 -2 26 -6 31 -9 5 -3 24 -8 43 -11 19 -3 42 -8 51 -11 9
-3 25 -6 35 -8 10 -2 52 -11 93 -19 41 -9 95 -19 120 -22 25 -4 65 -11 90 -16
25 -6 71 -12 102 -14 32 -2 61 -6 66 -9 5 -3 42 -7 83 -10 41 -3 110 -8 154
-12 44 -4 133 -7 197 -8 65 0 118 -4 118 -8 0 -4 6 -5 13 -2 24 9 87 10 87 2
0 -5 5 -6 11 -2 7 4 57 8 113 10 140 3 361 20 411 31 11 2 38 6 60 8 58 7 104
13 150 22 22 4 56 7 77 8 20 0 34 2 32 5 -4 3 27 11 141 34 11 3 20 5 20 6 0
1 12 3 27 5 16 2 37 6 47 10 11 3 29 8 40 10 33 8 51 12 131 35 41 12 82 23
90 25 32 6 321 107 347 121 16 7 33 14 39 14 6 0 38 12 70 26 73 32 108 47
114 48 3 1 12 6 20 11 8 5 21 10 28 11 7 1 68 30 135 65 109 55 160 82 277
145 19 11 37 22 38 27 2 4 10 7 18 7 8 0 14 5 14 11 0 5 4 8 9 5 4 -3 16 3 26
14 10 11 22 20 27 20 11 0 206 127 226 147 7 7 17 13 21 13 4 0 17 8 29 17 11
10 33 27 48 38 52 38 139 104 154 118 8 7 42 35 75 63 33 27 64 55 68 62 4 6
12 12 16 12 5 0 24 15 43 33 149 141 244 235 306 303 117 126 126 136 173 194
24 30 46 57 49 60 7 6 78 99 102 131 51 71 99 135 108 146 5 7 10 16 10 20 0
5 11 20 25 35 14 15 25 29 25 32 0 2 32 55 70 117 39 63 70 119 70 126 0 7 4
13 8 13 5 0 28 37 51 83 23 45 46 89 52 97 19 30 118 248 159 350 23 58 49
121 57 140 9 19 17 41 18 50 1 8 6 26 12 40 18 45 52 147 57 174 2 14 8 31 12
38 5 7 9 19 10 28 3 23 12 59 23 94 6 17 12 42 15 56 2 14 14 63 26 110 12 47
23 101 25 120 2 19 6 46 10 60 6 28 13 68 20 120 5 33 10 70 19 130 19 123 30
305 30 520 1 182 -8 382 -18 399 -2 3 -7 31 -10 61 -8 67 -13 96 -31 172 -7
32 -11 58 -8 58 3 0 0 7 -7 15 -7 8 -10 15 -8 15 5 0 1 23 -18 110 -3 14 -9
39 -15 55 -5 17 -27 93 -49 170 -44 152 -43 151 -54 180 -5 11 -10 27 -13 35
-4 8 -7 20 -7 25 -2 12 -24 82 -36 110 -4 11 -18 47 -30 80 -12 33 -26 69 -30
80 -4 11 -18 47 -30 80 -25 69 -27 72 -73 180 -19 44 -44 101 -55 127 -11 25
-18 49 -14 52 3 3 0 6 -6 6 -7 0 -12 4 -12 10 0 9 -25 67 -92 208 -17 37 -32
69 -33 72 0 3 -35 76 -78 162 -43 87 -77 161 -76 164 0 4 -3 10 -8 13 -5 3
-26 40 -48 81 -21 41 -47 90 -57 108 -10 17 -14 32 -10 32 4 0 2 4 -4 8 -10 6
-47 69 -49 82 0 3 -5 12 -10 20 -5 8 -17 29 -26 45 -58 106 -88 161 -135 243
-30 52 -54 98 -54 103 0 5 -4 9 -10 9 -5 0 -10 5 -10 10 0 6 -18 39 -40 74
-22 35 -40 68 -40 75 0 6 -4 11 -8 11 -4 0 -13 12 -20 28 -23 50 -37 72 -44
72 -5 0 -8 5 -8 10 0 8 -128 221 -180 300 -6 8 -13 21 -17 29 -3 8 -30 50 -60
94 -29 43 -53 83 -53 88 0 5 -4 9 -10 9 -5 0 -10 5 -10 10 0 12 -52 94 -62 98
-5 2 -8 10 -8 18 0 8 -4 14 -10 14 -5 0 -10 4 -10 9 0 14 -53 91 -62 91 -5 0
-7 4 -3 9 3 5 0 15 -7 23 -7 7 -58 81 -114 163 -177 264 -257 379 -276 401
-10 11 -18 25 -18 30 0 5 -9 16 -19 24 -11 7 -18 17 -15 22 3 4 1 8 -5 8 -5 0
-12 9 -16 19 -3 11 -19 34 -35 53 -17 18 -32 41 -36 51 -3 9 -9 17 -12 17 -4
0 -16 16 -26 35 -11 19 -23 35 -28 35 -4 0 -8 6 -8 14 0 8 -3 16 -7 18 -5 2
-36 41 -70 88 -34 47 -69 94 -77 105 -9 11 -26 34 -38 50 -12 17 -27 35 -33
42 -5 6 -21 28 -35 48 -14 21 -33 46 -42 56 -10 10 -18 22 -18 25 0 8 -82 108
-92 112 -5 2 -8 10 -8 18 0 8 -4 14 -10 14 -5 0 -10 5 -10 10 0 6 -7 18 -16
28 -61 69 -74 85 -79 103 -4 10 -11 17 -16 14 -5 -4 -9 0 -9 7 0 7 -10 24 -23
38 -12 14 -60 72 -105 130 -45 58 -92 116 -105 130 -12 14 -38 46 -57 70 -19
25 -43 53 -54 63 -10 9 -16 17 -13 17 4 0 -6 13 -21 29 -15 15 -34 37 -42 47
-31 39 -106 129 -120 144 -8 9 -33 38 -55 65 -22 27 -49 58 -60 70 -11 11 -35
38 -54 60 -65 77 -156 179 -217 242 -33 34 -59 63 -57 63 6 0 -350 354 -416
413 -36 32 -96 82 -135 111 -140 105 -206 129 -274 101z"/>
</g>
</svg>
