<?xml version="1.0" encoding="UTF-8"?>
<svg width="15px" height="24px" viewBox="0 0 30 39" version="1.1" xmlns="http://www.w3.org/2000/svg" xmlns:xlink="http://www.w3.org/1999/xlink">
    <!-- Generator: Sketch 51.2 (57519) - http://www.bohemiancoding.com/sketch -->
    <title>Group</title>
    <desc>Created with Sketch.</desc>
    <defs></defs>
    <g id="Page-6" stroke="none" stroke-width="1" fill="none" fill-rule="evenodd">
        <g id="Group">
            <path d="M30,24.4174622 C30,32.5188455 23.2456414,39 15,39 C6.75435855,39 0,32.5188455 0,24.4174622 C0,16.316079 13.3874163,3.12900747e-16 15,0 C16.6125837,0 30,16.4013037 30,24.4174622 Z" id="Shape" fill="#42A2FF" fill-rule="nonzero"></path>
            <path d="M22.3338724,7.0916208 L22.6302292,6.50289091 C23.0666916,5.63583347 23.4892138,5.90651866 23.573959,7.1074832 L24.4754466,19.8828979 C24.5601918,21.0838624 23.8194823,21.3545476 22.8210256,20.4874901 L22.143076,19.8987603 C21.1446193,19.0317028 20.4039098,17.7792045 20.488655,17.101227 L21.3901427,9.88915406 C21.4748878,9.21117655 21.89741,7.95867824 22.3338724,7.0916208 Z" id="Rectangle-2" fill="#FFFFFF" transform="translate(22.482051, 13.495191) rotate(-30.000000) translate(-22.482051, -13.495191) "></path>
        </g>
    </g>
</svg>