<?xml version="1.0" encoding="UTF-8"?>
<svg width="200px" height="200px" viewBox="0 0 200 200" version="1.1" xmlns="http://www.w3.org/2000/svg" xmlns:xlink="http://www.w3.org/1999/xlink">
    <!-- Generator: Sketch 51.2 (57519) - http://www.bohemiancoding.com/sketch -->
    <title>planet-earth</title>
    <desc>Created with Sketch.</desc>
    <defs>
        <circle id="path-1" cx="100" cy="100" r="100"></circle>
    </defs>
    <g id="Page-1" stroke="none" stroke-width="1" fill="none" fill-rule="evenodd">
        <g id="planet-earth">
            <mask id="mask-2" fill="white">
                <use xlink:href="#path-1"></use>
            </mask>
            <use id="Oval" fill="#42A2FF" fill-rule="nonzero" xlink:href="#path-1"></use>
            <path d="M63.8961676,186.883701 C74.6015259,186.698418 81.5300169,186.737185 84.6816406,187 C96.4939948,187.985037 103.771948,190.851562 110.017578,190.851562 C118.533839,190.851562 128.412706,189.935831 139.654179,188.104369 L139.654182,188.104385 C142.634103,187.618896 145.443372,189.641032 145.928861,192.620953 C145.97621,192.911577 146,193.205552 146,193.500008 L146,194.000016 C146,197.313725 143.313708,200.000016 140,200.000016 L63.9999925,200.00002 C60.686284,200.00002 57.9999925,197.313728 57.9999925,194.00002 C57.9999925,194.000019 57.9999925,194.000018 57.9999925,194.000016 L57.999996,192.882799 C57.9999979,189.609569 60.6234277,186.940343 63.8961676,186.883701 Z" id="Rectangle" fill="#ECE5E5" fill-rule="nonzero" mask="url(#mask-2)"></path>
            <path d="M61.8584913,-6.84277605 C72.5852757,-7.0958486 79.526328,-7.04340608 82.6816482,-6.6854485 C94.4940024,-5.34538742 101.771956,-1.4457173 108.017586,-1.4457173 C116.299111,-1.4457173 125.869163,-2.62376477 136.727741,-4.97985972 L136.727742,-4.97985166 C139.966092,-5.68250892 143.160909,-3.62692432 143.863566,-0.388574953 C143.954267,0.0294403299 144.000008,0.455956295 144.000008,0.88369856 L144.000007,6.57236877 C144.000007,9.22415203 142.259247,11.5614393 139.718568,12.3209811 C135.482828,13.5872651 133.005024,14.1755839 132.285156,14.0859375 C126.680168,13.3879386 120.856871,7.8125 113.472656,7.8125 C105.921252,7.8125 94.5430952,13.3559735 82.6816482,14.0859375 C78.8471926,14.3219133 71.6316639,13.5765653 61.0350619,11.8498933 L61.0350614,11.8498961 C58.1320901,11.3768691 56.0000075,8.86925324 56.0000075,5.92799546 L56.000004,-0.844441625 C56.000004,-4.10301549 58.600824,-6.76591926 61.8584913,-6.84277605 Z" id="Rectangle" fill="#ECE5E5" fill-rule="nonzero" mask="url(#mask-2)"></path>
            <g id="Group" mask="url(#mask-2)" fill="#B3D136" fill-rule="nonzero">
                <g transform="translate(54.000000, 23.000000)">
                    <path d="M63.1334025,154.215498 C67.2673975,152.232358 82.9897475,133.856457 89.4894613,115.627453 C91.9742459,108.658662 84.7441464,107.724548 81.6610325,102.685618 C78.6030004,97.6876811 79.4347745,90.1533518 75.6686437,85.1201376 C73.2995271,81.9539515 67.2201907,79.5873003 63.1334025,80.0603333 C58.6875303,80.5749292 56.8899082,82.9882355 54.4095993,85.1201376 C47.3313383,91.2041216 40.8482752,102.128609 45.6614085,115.627453 C47.1967914,119.933567 53.7886908,121.727641 54.4095993,127.557548 C55.2231441,135.196178 52.9985922,148.723834 50.9361042,150.267545 C45.6614085,154.215498 53.1606128,159.171411 54.4095993,159.877114 C56.2932945,160.94144 62.004194,154.757197 63.1334025,154.215498 Z" id="Oval-2"></path>
                    <path d="M55.0703015,93.3987006 C57.9269228,93.3987006 53.4601161,87.3237202 51.600997,78.2330453 C50.9267634,74.9361946 51.600997,73.6953756 51.600997,70.3269042 C51.600997,67.2435523 45.7140271,71.2315935 44.797416,70.3269042 C41.9514956,67.5179986 39.8864975,65.0005247 36.9421862,65.0005247 C34.2345668,65.0005247 22.4265759,64.8361373 24.1759321,70.3269042 C24.9415397,72.7299441 39.4455151,74.8796537 39.4455151,78.7325972 C39.4455151,84.3369451 48.2567038,98.6371628 50.4173899,99.8148016 C53.1363097,101.296694 52.9013354,93.3987006 55.0703015,93.3987006 Z" id="Oval-3"></path>
                    <path d="M33.6763284,74 C41.2430301,74 33.1972337,58.4223785 35.8553854,52.7148705 C36.6654847,50.9754484 43.492834,49.8484505 46.9147588,52.7148705 C50.5477654,55.758106 50.5476182,64.7969969 51.9253772,63.1661425 C52.2582944,62.7720681 54.6741911,63.2993379 55.0239645,62.0498583 C55.848816,59.1032792 54.6890693,53.2985354 55.9604594,52.7148705 C58.4963039,51.5507248 59.7680839,49.1833201 61.461811,46.44991 C63.8180255,42.6473491 82.9473269,40.492435 82.9473269,37 C82.9473269,35.6889992 85.3158414,29.4460188 82.9473269,27.6451934 C80.1272205,25.5010143 75.5069478,18.5867855 73.559645,15.5873574 C70.0905789,10.2439592 68.4674848,10.938714 68.4674848,9.10405761 C68.4674848,0.313785344 63.4456449,0.313785344 61.461811,0.122641718 C59.4256757,-0.0735411856 59.7785433,8.15265798 58.8247995,9.10405761 C53.4760212,14.4396896 52.7977197,18.6678284 48.4131506,15.5873574 C43.1399458,11.8825568 42.7334596,0.122641718 35.8151586,0.122641718 C21.2598304,0.122641718 3.33737001,-1.74590819 0.0593735124,9.10405761 C-0.61420098,11.3335475 4.63290175,19.1338544 6.20515222,25.0270891 C8.00045921,31.7564019 6.20515222,36.6769302 6.20515222,39.758106 C6.20515222,51.2571132 8.74768423,56.9054515 14.3395618,65.1248032 C17.9440903,70.4230035 25.4605106,74 33.6763284,74 Z" id="Oval-4"></path>
                </g>
            </g>
        </g>
    </g>
</svg>